<svg width="16" height="16" viewBox="0 0 16 16" fill="none" xmlns="http://www.w3.org/2000/svg">
<path d="M10.188 1.18317C10.3096 1.33405 10.3716 1.53767 10.4951 1.94442L13.2021 10.8364C12.1854 10.3087 11.094 9.93926 9.96584 9.7408L8.20359 3.78505C8.18968 3.73744 8.1607 3.69563 8.12099 3.6659C8.08129 3.63617 8.03301 3.62013 7.98341 3.62019C7.93381 3.62025 7.88556 3.6364 7.84593 3.66621C7.80629 3.69603 7.7774 3.73791 7.76359 3.78555L6.02247 9.7378C4.88934 9.93543 3.79317 10.3055 2.77209 10.835L5.49184 1.94255C5.61634 1.5363 5.67834 1.33305 5.79984 1.18217C5.90724 1.04937 6.04677 0.946189 6.20522 0.882422C6.38434 0.810547 6.59722 0.810547 7.02209 0.810547H8.96497C9.39022 0.810547 9.60309 0.810547 9.78284 0.882922C9.9414 0.946678 10.0808 1.05006 10.188 1.18317ZM10.5117 11.2594C10.0655 11.6412 9.17472 11.9014 8.14884 11.9014C6.89009 11.9014 5.83447 11.5093 5.55459 10.9819C5.45459 11.2842 5.43209 11.6299 5.43209 11.8512C5.43209 11.8512 5.36622 12.9355 6.12059 13.6899C6.12059 13.5968 6.13893 13.5046 6.17457 13.4186C6.2102 13.3326 6.26243 13.2545 6.32826 13.1886C6.3941 13.1228 6.47226 13.0706 6.55828 13.035C6.6443 12.9994 6.73649 12.981 6.82959 12.981C7.50084 12.981 7.50047 13.5664 7.49997 14.042V14.084C7.49997 14.8057 7.94084 15.4239 8.56784 15.6847C8.47121 15.4862 8.42111 15.2682 8.42134 15.0474C8.42134 14.3589 8.82509 14.103 9.29484 13.8052C9.66847 13.5684 10.0835 13.3052 10.3691 12.7774C10.5233 12.4931 10.6038 12.1746 10.6035 11.8512C10.6036 11.6503 10.5727 11.4508 10.5117 11.2594Z" fill="#F8F8F2"/>
</svg>
