<svg width="24" height="24" viewBox="0 0 24 24" fill="none" xmlns="http://www.w3.org/2000/svg">
<path d="M9 8V11C9 11.6 8.6 12 8 12H5M16 16H18C18.6 16 19 15.6 19 15V5C19 4.4 18.6 4 18 4H11C10.7348 4 10.4804 4.10536 10.2929 4.29289C10.1054 4.48043 10 4.73478 10 5V6M14 9V19C14 19.6 13.6 20 13 20H6C5.73478 20 5.48043 19.8946 5.29289 19.7071C5.10536 19.5196 5 19.2652 5 19V11.9C5 11.6 5 11.4 5.2 11.2L7.7 8.3C7.9 8.1 8.2 8 8.5 8H13C13.6 8 14 8.4 14 9Z" stroke="#F8F8F2" stroke-width="2" stroke-linejoin="round"/>
</svg>
