<svg width="30" height="30" viewBox="0 0 30 30" fill="none" xmlns="http://www.w3.org/2000/svg">
<g clip-path="url(#clip0_438_844)">
<path d="M12.7687 17.2576C12.7687 16.4889 13.1381 15.2664 16.0068 15.2664C16.8862 15.2664 17.4281 15.3301 18.1556 15.4932C17.9231 18.5045 16.4493 18.902 15.0168 18.902C14.2331 18.902 12.7687 18.4932 12.7687 17.2576Z" fill="#F8F8F2"/>
<path d="M4.85625 30H25.1437C26.4317 30 27.6669 29.4884 28.5776 28.5776C29.4884 27.6669 30 26.4317 30 25.1437V4.85625C30 3.56829 29.4884 2.33309 28.5776 1.42236C27.6669 0.511639 26.4317 0 25.1437 0L4.85625 0C3.56829 0 2.33309 0.511639 1.42236 1.42236C0.511639 2.33309 0 3.56829 0 4.85625L0 25.1437C0 26.4317 0.511639 27.6669 1.42236 28.5776C2.33309 29.4884 3.56829 30 4.85625 30ZM10.9988 11.0812C12.0619 9.5625 13.4644 8.97 15.405 8.97C16.7737 8.97 17.9381 9.43125 18.7706 10.3031C19.6012 11.1769 20.0756 12.4256 20.1844 14.0213C20.6444 14.2138 21.0681 14.4406 21.4556 14.7019C23.0156 15.75 23.8744 17.3175 23.8744 19.1138C23.8744 22.9331 20.7431 26.25 15.0769 26.25C10.2113 26.25 5.15625 23.4187 5.15625 14.9925C5.15625 6.61125 10.0519 3.75 15.0619 3.75C17.3756 3.75 22.8037 4.09125 24.8438 10.8319L22.9312 11.3269C21.3525 6.52687 18.0431 5.76187 15.0112 5.76187C9.99562 5.76187 7.16063 8.81438 7.16063 15.3113C7.16063 21.1369 10.3294 24.2306 15.0769 24.2306C18.9825 24.2306 21.8944 22.2019 21.8944 19.23C21.8944 17.2069 20.1956 16.2394 20.1075 16.2394C19.7756 17.9738 18.8869 20.8931 14.9831 20.8931C12.7088 20.8931 10.7456 19.3219 10.7456 17.2631C10.7456 14.3231 13.5356 13.2581 15.7388 13.2581C16.5638 13.2581 17.5575 13.3144 18.0769 13.4194C18.0769 12.5231 17.3194 10.9894 15.4031 10.9894C13.695 10.9894 13.2281 11.5294 12.6844 12.1594L12.6394 12.21C12.2606 11.9569 10.9988 11.0812 10.9988 11.0812Z" fill="#F8F8F2"/>
</g>
<defs>
<clipPath id="clip0_438_844">
<rect width="30" height="30" fill="white"/>
</clipPath>
</defs>
</svg>
