<svg width="27" height="30" viewBox="0 0 27 30" fill="none" xmlns="http://www.w3.org/2000/svg">
<g clip-path="url(#clip0_438_848)">
<path d="M3.75 1.875C1.68164 1.875 0 3.55664 0 5.625V24.375C0 26.4434 1.68164 28.125 3.75 28.125H22.5C24.5684 28.125 26.25 26.4434 26.25 24.375V5.625C26.25 3.55664 24.5684 1.875 22.5 1.875H3.75ZM21.1582 6.79688L15.0762 13.7461L22.2305 23.2031H16.6289L12.2461 17.4668L7.22461 23.2031H4.44141L10.9453 15.7676L4.08398 6.79688H9.82617L13.793 12.041L18.375 6.79688H21.1582ZM18.9434 21.5391L8.98828 8.37305H7.33008L17.3965 21.5391H18.9375H18.9434Z" fill="#F8F8F2"/>
</g>
<defs>
<clipPath id="clip0_438_848">
<rect width="26.25" height="30" fill="white"/>
</clipPath>
</defs>
</svg>
